<?xml version="1.0" standalone="no"?>
<!DOCTYPE svg PUBLIC "-//W3C//DTD SVG 20010904//EN"
 "http://www.w3.org/TR/2001/REC-SVG-20010904/DTD/svg10.dtd">
<svg version="1.0" xmlns="http://www.w3.org/2000/svg"
 width="148.000000pt" height="205.000000pt" viewBox="0 0 148.000000 205.000000"
 preserveAspectRatio="xMidYMid meet">

<g transform="translate(0.000000,205.000000) scale(0.100000,-0.100000)"
fill="#000000" stroke="none">
<path d="M714 1693 c-20 -32 -47 -74 -59 -93 -70 -107 -135 -211 -135 -216 0
-3 -7 -12 -15 -20 -18 -19 -20 -64 -2 -64 7 0 21 -6 31 -13 20 -14 20 -14
-128 -261 -42 -71 -75 -135 -72 -143 3 -7 17 -18 31 -25 14 -6 25 -15 25 -20
0 -5 -48 -92 -107 -194 -85 -148 -105 -189 -96 -202 20 -33 103 -53 290 -69
l183 -17 0 -72 c0 -107 -2 -104 100 -104 102 0 100 -3 100 104 l0 72 183 17
c198 18 241 27 280 57 l26 20 -33 58 c-18 31 -67 116 -109 189 -42 72 -77 136
-77 141 0 5 14 15 30 22 29 12 39 37 21 55 -10 11 -201 333 -208 351 -2 6 10
16 26 22 19 7 31 18 31 29 0 16 -216 377 -250 418 -20 24 -28 19 -66 -42z m82
-59 c16 -26 66 -106 112 -178 l83 -131 -38 -5 c-23 -3 -39 -11 -41 -20 -1 -9
28 -67 66 -130 38 -63 89 -150 115 -193 l46 -78 -34 -15 c-19 -8 -35 -20 -35
-27 0 -7 25 -55 56 -107 31 -52 81 -137 111 -188 33 -57 51 -98 46 -103 -18
-18 -152 -39 -336 -51 -148 -9 -226 -9 -375 0 -181 12 -316 32 -334 50 -5 5 5
32 23 63 149 252 189 322 189 335 0 8 -14 20 -30 25 -17 6 -30 15 -30 19 0 5
30 60 66 122 172 294 174 298 125 298 -17 0 -33 5 -36 10 -4 6 28 66 71 133
43 67 91 143 107 170 17 26 33 47 37 47 4 0 20 -21 36 -46z m19 -1344 l0 -65
-55 0 -55 0 -3 54 c-5 78 -1 83 60 79 l53 -3 0 -65z"/>
</g>
</svg>
